<svg aria-hidden="true" style="position: absolute; width: 0; height: 0; overflow: hidden;" version="1.1" xmlns="http://www.w3.org/2000/svg" xmlns:xlink="http://www.w3.org/1999/xlink">
<defs>
<symbol id="poseidon-logo" viewBox="0 0 140 32">
<path fill="#344fb5" style="fill: var(--color1, #344fb5)" d="M30.209 19.353c0.138-0.508 0.248-1.023 0.329-1.542-0.846 2.473-2.376 4.656-4.411 6.296s-4.494 2.669-7.090 2.97c-2.596 0.3-5.225-0.141-7.581-1.273s-4.343-2.908-5.731-5.123l-5.274 3.051c1.683 2.718 4.125 4.884 7.025 6.232s6.129 1.818 9.293 1.352c3.163-0.465 6.121-1.846 8.509-3.971s4.103-4.903 4.932-7.991z"></path>
<path fill="#3677e3" style="fill: var(--color2, #3677e3)" d="M12.449 15.655l11.409-6.589c0.112-0.046 0.238-0.050 0.353-0.010s0.212 0.12 0.271 0.226c0.060 0.106 0.079 0.23 0.054 0.349s-0.093 0.225-0.19 0.297l-11.421 6.589c0.249 0.397 0.525 0.776 0.828 1.134 0.349 0.406 0.728 0.785 1.134 1.134l4.332-3.402c0.050-0.041 0.108-0.071 0.171-0.089s0.127-0.024 0.192-0.016c0.064 0.007 0.127 0.027 0.183 0.059s0.106 0.074 0.146 0.126c0.067 0.088 0.103 0.196 0.102 0.306v1.021l4.208-3.402c0.051-0.041 0.11-0.072 0.173-0.090s0.129-0.024 0.195-0.016c0.065 0.007 0.129 0.028 0.186 0.059s0.108 0.075 0.149 0.126c0.041 0.050 0.071 0.108 0.089 0.171s0.024 0.127 0.016 0.192c-0.007 0.064-0.027 0.127-0.059 0.183s-0.074 0.106-0.126 0.146l-5.001 4.026c-0.086 0.072-0.194 0.112-0.306 0.113-0.13 0-0.256-0.051-0.349-0.142s-0.147-0.215-0.15-0.346v-1.043l-3.527 2.801c-0.094 0.064-0.204 0.1-0.318 0.102-0.082 0.101-0.201 0.166-0.33 0.18s-0.259-0.021-0.362-0.101c-0.548-0.41-1.053-0.873-1.508-1.384-0.347-0.393-0.665-0.81-0.953-1.248l-5.489 3.176c1.755 2.931 4.603 5.045 7.916 5.877s6.822 0.313 9.753-1.442c2.931-1.755 5.045-4.603 5.877-7.916s0.313-6.822-1.442-9.753l-0.057-0.102c-0.006-0.026-0.006-0.053 0-0.079-1.222-2.086-3.218-3.605-5.554-4.227s-4.823-0.297-6.921 0.904c-1.059 0.593-1.987 1.393-2.732 2.351s-1.288 2.056-1.601 3.229c-0.245 0.878-0.359 1.788-0.34 2.699l3.924-1.554-0.885-0.522c-0.114-0.066-0.197-0.175-0.231-0.303s-0.016-0.263 0.050-0.378c0.057-0.097 0.145-0.173 0.25-0.215l5.988-2.268c0.060-0.023 0.125-0.034 0.189-0.032s0.128 0.016 0.187 0.043c0.059 0.026 0.112 0.064 0.157 0.111s0.079 0.102 0.102 0.162c0.023 0.060 0.034 0.125 0.032 0.189s-0.016 0.128-0.043 0.187c-0.026 0.059-0.064 0.112-0.111 0.157s-0.102 0.079-0.162 0.102l-5.024 1.894 0.873 0.522c0.096 0.055 0.169 0.144 0.204 0.249 0.024 0.060 0.036 0.123 0.035 0.188s-0.014 0.128-0.039 0.187-0.062 0.112-0.108 0.157c-0.046 0.045-0.1 0.080-0.16 0.104l-5.115 2.041 0.885 2.801z"></path>
<path fill="#93c3ff" style="fill: var(--color3, #93c3ff)" d="M15.556 2.693c2.072-1.202 4.504-1.628 6.861-1.202-0.536-0.219-1.085-0.405-1.645-0.556-2.41-0.635-4.953-0.556-7.319 0.229s-4.453 2.241-6.006 4.19-2.505 4.309-2.741 6.791c-0.236 2.481 0.255 4.978 1.413 7.185l5.5-3.176v-1.236l-0.057-0.159v-0.794h-0.907v-0.204c-0.057-0.238-0.091-0.488-0.125-0.726-0.285-2.017 0.039-4.074 0.933-5.905s2.314-3.353 4.080-4.37l0.011-0.068z"></path>
<path fill="#4289fe" style="fill: var(--color4, #4289fe)" d="M134.263 22.891h5.478v-13.757h-2.098l0.011 11.931h-1.486l-1.361-11.931h-5.478v13.757h2.155v-11.908h1.474l1.304 11.908z"></path>
<path fill="#4289fe" style="fill: var(--color4, #4289fe)" d="M114.881 15.996c-0.033-0.714 0.079-1.427 0.33-2.096s0.634-1.281 1.127-1.798c0.494-0.517 1.087-0.928 1.744-1.209s1.364-0.426 2.078-0.426 1.422 0.145 2.079 0.426c0.657 0.281 1.25 0.693 1.743 1.209s0.878 1.128 1.128 1.798c0.251 0.669 0.363 1.383 0.329 2.096 0 1.396-0.554 2.734-1.541 3.721s-2.325 1.541-3.72 1.541c-1.398-0.003-2.738-0.557-3.73-1.542s-1.554-2.322-1.566-3.72zM127.526 15.996c0.002-1.457-0.427-2.881-1.236-4.093s-1.957-2.157-3.302-2.716c-1.346-0.558-2.827-0.705-4.255-0.422s-2.741 0.985-3.771 2.015c-1.030 1.030-1.731 2.343-2.015 3.771s-0.136 2.91 0.422 4.255 1.503 2.495 2.715 3.303c1.212 0.808 2.637 1.238 4.094 1.236 1.948-0.003 3.816-0.778 5.193-2.156s2.152-3.245 2.155-5.193z"></path>
<path fill="#4289fe" style="fill: var(--color4, #4289fe)" d="M103.994 20.827h-1.237v-9.629h1.237c1.328-0.049 2.621 0.431 3.595 1.335s1.549 2.157 1.599 3.485c-0.053 1.326-0.629 2.576-1.603 3.478s-2.265 1.38-3.591 1.331zM110.685 13.296c-0.376-0.823-0.911-1.564-1.576-2.177-1.39-1.288-3.22-1.998-5.115-1.985h-3.255v13.757h3.255c1.895 0.013 3.724-0.697 5.115-1.985 0.661-0.618 1.195-1.357 1.576-2.177 0.373-0.855 0.566-1.778 0.567-2.711-0.002-0.936-0.195-1.863-0.567-2.722z"></path>
<path fill="#4289fe" style="fill: var(--color4, #4289fe)" d="M96.996 11.153h1.792v-2.019h-5.568v2.019h1.803v9.81h-1.803v1.928h5.568v-1.928h-1.792v-9.81z"></path>
<path fill="#4289fe" style="fill: var(--color4, #4289fe)" d="M85.133 10.7c0.702-0.008 1.398 0.126 2.046 0.393s1.237 0.662 1.73 1.161c0.662 0.668 1.139 1.496 1.384 2.404h-10.207c0.241-0.907 0.714-1.736 1.373-2.404 0.974-0.979 2.293-1.537 3.674-1.554zM91.87 18.899l-2.268-0.17c-0.2 0.367-0.432 0.716-0.692 1.043-0.695 0.701-1.573 1.193-2.533 1.419s-1.966 0.177-2.901-0.141c-0.935-0.318-1.761-0.893-2.384-1.658s-1.019-1.691-1.141-2.67h12.498c0-0.215 0-0.442 0-0.68 0.011-1.832-0.659-3.603-1.879-4.969s-2.904-2.231-4.726-2.427-3.651 0.292-5.134 1.369c-1.482 1.076-2.513 2.665-2.891 4.457s-0.077 3.662 0.844 5.245c0.921 1.583 2.398 2.768 4.143 3.325s3.635 0.446 5.304-0.311c1.668-0.757 2.996-2.106 3.726-3.787l0.034-0.045z"></path>
<path fill="#4289fe" style="fill: var(--color4, #4289fe)" d="M74.042 16.778h-8.801v-7.644h10.819v2.007h-8.812v3.629h8.812v8.12h-10.819v-2.007h8.801v-4.105z"></path>
<path fill="#4289fe" style="fill: var(--color4, #4289fe)" d="M50.997 15.996c-0.011-1.056 0.294-2.092 0.877-2.973s1.416-1.567 2.393-1.97c0.977-0.403 2.051-0.504 3.086-0.29s1.981 0.733 2.718 1.49c0.494 0.489 0.883 1.072 1.147 1.715s0.394 1.332 0.385 2.027c0.008 0.689-0.124 1.373-0.387 2.011s-0.652 1.215-1.144 1.698c-0.737 0.749-1.68 1.263-2.709 1.474s-2.098 0.113-3.071-0.285-1.805-1.076-2.392-1.948c-0.586-0.872-0.9-1.899-0.901-2.95zM63.642 15.996c0.002-1.457-0.428-2.881-1.236-4.093s-1.957-2.157-3.303-2.716-2.826-0.705-4.255-0.422c-1.429 0.284-2.741 0.985-3.771 2.015s-1.731 2.343-2.015 3.771c-0.284 1.429-0.137 2.91 0.422 4.255s1.504 2.495 2.716 3.303c1.212 0.808 2.637 1.238 4.093 1.236 1.948-0.003 3.816-0.778 5.193-2.156s2.153-3.245 2.156-5.193z"></path>
<path fill="#4289fe" style="fill: var(--color4, #4289fe)" d="M42.899 17.096h-1.735v-5.92h1.735c0.791 0.006 1.548 0.324 2.106 0.884s0.873 1.319 0.876 2.11c-0.009 0.783-0.328 1.531-0.887 2.079s-1.313 0.853-2.096 0.847zM42.899 9.157h-3.799v13.723h2.064v-3.72h1.735c0.659 0.012 1.314-0.11 1.925-0.359s1.163-0.621 1.625-1.092c0.468-0.463 0.84-1.014 1.095-1.621s0.388-1.258 0.391-1.917c-0.006-1.334-0.538-2.611-1.481-3.554s-2.22-1.476-3.554-1.481v0.023z"></path>
</symbol>
<symbol id="basket" viewBox="0 0 32 32">
<path d="M29.875 11.573c0.992-0.022 1.807 0.776 1.807 1.768v0.37c0 0.467-0.181 0.891-0.476 1.207-0.417 0.446-0.918 0.895-1.018 1.498l-1.869 11.28c-0.014 0.087-0.036 0.174-0.066 0.257-0.771 2.184-1.405 3.406-3.121 3.639h-17.824c-0.157 0-0.313-0.021-0.459-0.079-1.035-0.409-1.493-1.259-2.112-3.212l-2.617-11.947c-0.125-0.571-0.61-0.984-1.022-1.397-0.319-0.32-0.516-0.761-0.516-1.249v-0.444c0-0.963 0.77-1.749 1.733-1.768l2.598-0.052c0.779-0.016 1.456-0.539 1.667-1.289l2.496-8.873c0.259-0.922 1.205-1.47 2.134-1.236l0.094 0.024c0.966 0.243 1.541 1.235 1.271 2.194l-1.974 7.020c-0.317 1.128 0.531 2.247 1.702 2.247h8.144c1.172 0 2.020-1.119 1.702-2.247l-1.95-6.933c-0.281-1 0.375-2.030 1.397-2.221 0.9-0.168 1.794 0.376 2.042 1.257l2.515 8.938c0.218 0.776 0.935 1.307 1.741 1.289l1.983-0.043z"></path>
</symbol>
</defs>
</svg>
