<svg width="446" height="428" viewBox="0 0 446 428" fill="none" xmlns="http://www.w3.org/2000/svg">
<path d="M215.054 192.351C183.71 194.541 131.324 212.282 120.145 301.639L97.3494 301.858C81.3485 331.863 75.6496 367.781 88.5818 394.282C89.8969 393.844 91.4312 394.282 91.8696 395.815C92.7464 399.1 95.1575 401.509 97.3494 404.137C99.3221 406.327 100.856 408.736 102.829 410.927C103.267 411.584 103.925 412.022 104.363 412.679C106.117 412.898 107.87 412.898 109.405 413.117C114.885 413.774 120.364 414.212 125.844 414.212C127.378 414.212 128.913 414.212 130.666 414.431C133.516 413.993 136.146 413.774 138.995 413.774C146.009 413.993 153.243 415.088 160.257 415.307C161.134 415.307 161.791 415.745 162.23 416.402H188.971C211.766 399.538 226.89 369.752 235.658 343.909C264.372 258.055 283.441 187.533 215.054 192.351Z" fill="url(#paint0_linear_2012_549)"/>
<path d="M88.1434 393.186C92.308 402.166 98.6645 410.269 107.651 416.402H162.23C141.407 390.558 104.363 391.434 88.1434 393.186Z" fill="#FFB850"/>
<g style="mix-blend-mode:overlay">
<path d="M215.054 192.351C183.71 194.541 131.324 212.282 120.145 301.639L97.3494 301.858C76.088 341.718 73.0193 391.872 107.651 416.402H188.971C211.766 399.538 226.891 369.752 235.658 343.909C264.372 258.055 283.441 187.533 215.054 192.351Z" fill="url(#paint1_linear_2012_549)"/>
</g>
<path d="M138.119 0.276672L127.598 16.7027H148.64L138.119 0.276672Z" fill="#61F2F7"/>
<path d="M51.5387 291.345L58.9911 283.899C59.8679 283.023 59.8679 281.928 58.9911 281.052C58.1144 280.176 57.0184 280.176 56.1417 281.052L48.6892 288.498L41.2368 281.052C40.36 280.176 39.2641 280.176 38.3873 281.052C37.5105 281.928 37.5105 283.023 38.3873 283.899L45.8398 291.345L38.3873 298.792C37.5105 299.668 37.5105 300.763 38.3873 301.639C38.8257 302.077 39.2641 302.296 39.9216 302.296C40.36 302.296 41.0176 302.077 41.456 301.639L48.9084 294.192L56.3609 301.639C56.7993 302.077 57.2376 302.296 57.8952 302.296C58.3336 302.296 58.9911 302.077 59.4295 301.639C60.3063 300.763 60.3063 299.668 59.4295 298.792L51.5387 291.345Z" fill="#FF613F"/>
<path d="M393.256 48.2405C393.694 52.6207 390.406 56.563 386.241 57.001C381.858 57.439 377.912 54.1538 377.474 49.9926C377.035 45.6123 380.323 41.6701 384.488 41.2321C388.872 40.575 392.598 43.8602 393.256 48.2405Z" fill="#344FB5"/>
<path d="M246.618 172.202C246.618 172.202 240.699 170.012 233.685 170.669C222.068 171.764 217.027 177.459 217.027 177.459L224.479 187.752L246.618 172.202Z" fill="#1A1A1A"/>
<path d="M152.147 354.64C152.147 353.326 151.928 352.012 151.928 350.479C151.928 348.727 151.708 347.413 151.708 346.099C151.708 344.346 151.708 342.813 151.489 341.499C151.489 339.528 151.489 338.214 151.489 336.681C151.489 334.71 151.489 333.177 151.489 331.863C151.489 329.673 151.489 328.358 151.489 326.825C151.489 324.635 151.489 323.102 151.489 321.569C151.489 319.598 151.489 317.846 151.708 316.313C151.708 314.561 151.928 313.028 151.928 311.275C151.928 309.304 152.147 307.552 152.147 306.019C152.366 303.829 152.366 302.296 152.585 300.544C152.804 298.135 153.024 296.602 153.024 295.068C153.243 292.659 153.462 291.126 153.681 289.374C153.9 286.965 154.12 285.432 154.339 283.68C154.558 281.271 154.777 279.738 155.215 277.985C155.654 275.795 155.873 274.043 156.092 272.291C156.311 270.977 156.531 269.663 156.75 268.349C156.75 267.911 156.969 267.692 156.969 267.254C157.188 266.378 157.407 265.502 157.627 264.407C157.627 263.969 157.846 263.75 157.846 263.312C158.065 262.216 158.503 260.902 158.723 259.807C159.161 258.493 159.38 257.398 159.818 256.084C159.818 255.646 160.038 255.427 160.038 254.989C160.257 254.113 160.476 253.237 160.914 252.58C161.134 252.142 161.134 251.923 161.353 251.485C161.791 250.39 162.01 249.514 162.449 248.638C162.887 247.324 163.326 246.228 163.764 245.133C163.983 244.914 163.983 244.476 164.202 244.257C164.421 243.6 164.86 242.724 165.298 242.067C165.517 241.848 165.517 241.41 165.737 241.191C166.175 240.315 166.613 239.439 167.052 238.782C167.709 237.468 168.148 236.592 168.805 235.716C169.682 234.183 170.12 233.526 170.34 232.869C170.559 232.65 170.778 232.212 170.778 231.993C171.216 231.336 171.655 230.46 172.093 229.802C172.97 228.488 173.408 227.831 174.066 226.955C174.943 225.641 175.381 225.203 175.819 224.546C176.915 223.232 177.354 222.575 177.792 221.918C178.669 220.823 179.326 220.166 179.765 219.509C180.641 218.414 181.08 217.976 181.518 217.319C182.614 216.224 183.053 215.567 183.71 215.129C184.587 214.253 185.244 213.596 185.902 212.938C186.779 212.062 187.436 211.624 187.875 211.186C188.971 210.31 189.409 209.653 190.067 209.215C190.943 208.339 191.601 207.901 192.259 207.463C193.135 206.806 193.574 206.368 194.231 205.93C195.327 205.054 195.766 204.616 196.423 204.178C197.3 203.521 197.957 203.083 198.615 202.645C199.492 202.207 199.93 201.769 200.588 201.331C201.465 200.674 202.122 200.236 202.78 200.017C203.437 199.579 204.095 199.141 204.752 198.703C205.41 198.265 206.068 198.046 206.506 197.608C208.698 196.512 210.451 195.417 212.205 194.541C221.849 189.942 228.644 188.409 228.644 188.409L229.082 196.731L236.096 193.665L245.741 189.942C245.741 189.942 311.059 194.76 329.691 263.531C346.787 326.387 341.746 415.964 341.746 415.964C341.746 415.964 156.311 416.183 156.311 415.964C156.531 416.183 152.147 354.64 152.147 354.64Z" fill="url(#paint2_linear_2012_549)"/>
<path d="M202.999 415.964C202.56 415.964 202.341 415.745 202.341 415.307C202.341 414.431 200.149 329.454 204.095 280.833C207.163 242.724 223.164 199.36 223.383 198.922C223.603 198.703 223.822 198.484 224.26 198.484C224.479 198.703 224.699 198.922 224.699 199.36C224.479 199.798 208.698 242.943 205.629 280.833C201.684 329.454 203.876 414.431 203.876 415.088C203.656 415.526 203.437 415.745 202.999 415.964Z" fill="#122C7A"/>
<path d="M198.396 234.621C197.958 237.468 199.273 239.877 201.465 240.315C203.656 240.753 205.848 238.782 206.287 235.935C206.725 233.088 205.41 230.679 203.218 230.241C201.026 229.803 198.834 231.774 198.396 234.621Z" fill="#FBFADC"/>
<path d="M191.163 286.965C190.724 289.812 192.259 292.222 194.45 292.66C196.642 292.879 198.834 290.907 199.053 288.06C199.492 285.213 197.957 282.804 195.766 282.366C193.574 281.928 191.601 284.337 191.163 286.965Z" fill="#FBFADC"/>
<path d="M189.409 343.032C189.19 345.88 190.724 348.289 193.135 348.508C195.327 348.727 197.3 346.537 197.519 343.689C197.738 340.842 196.204 338.433 193.793 338.214C191.382 337.995 189.409 340.185 189.409 343.032Z" fill="#FBFADC"/>
<path d="M183.053 400.195C182.833 402.823 184.368 405.232 186.56 405.232C188.752 405.451 190.505 403.261 190.724 400.633C190.944 398.005 189.409 395.596 187.217 395.596C185.245 395.377 183.272 397.348 183.053 400.195Z" fill="#FBFADC"/>
<path d="M339.335 339.528C343.061 335.805 347.445 332.739 352.048 330.33C354.897 364.277 352.705 389.025 352.705 389.025L341.746 389.463L328.156 390.12C321.8 373.037 325.526 353.107 339.335 339.528Z" fill="#FF7B48"/>
<g style="mix-blend-mode:overlay">
<path d="M315.005 340.842C316.758 358.801 304.922 412.241 304.922 412.241L192.259 412.898C279.058 400.414 268.975 210.31 268.975 210.31C268.975 210.31 312.155 311.056 315.005 340.842Z" fill="url(#paint3_linear_2012_549)"/>
</g>
<path d="M115.323 243.162H210.89C215.931 243.162 220.534 246.447 222.507 251.266L248.81 316.532C252.317 325.292 242.015 334.929 232.809 334.929L101.733 250.171C104.144 247.762 111.597 243.162 115.323 243.162Z" fill="#FBFADC"/>
<path d="M136.146 335.148H231.713C240.7 335.148 246.837 325.949 243.33 317.627L217.027 255.208C215.054 250.609 210.451 247.543 205.41 247.543H109.843C100.856 247.543 94.7192 256.741 98.2262 265.064L124.529 327.482C126.502 332.082 131.105 335.148 136.146 335.148Z" fill="#D2D2D2"/>
<g style="mix-blend-mode:overlay">
<path d="M136.146 335.148H231.713C240.7 335.148 246.837 325.949 243.33 317.627L217.027 255.208C215.054 250.609 210.451 247.543 205.41 247.543H109.843C100.856 247.543 94.7192 256.741 98.2262 265.064L124.529 327.482C126.502 332.082 131.105 335.148 136.146 335.148Z" fill="url(#paint4_linear_2012_549)"/>
</g>
<path d="M170.12 288.06C172.751 292.659 172.532 297.915 169.463 299.887C166.394 301.639 161.572 299.23 158.942 294.63C156.312 290.031 156.531 284.775 159.599 282.804C162.668 281.051 167.49 283.461 170.12 288.06Z" fill="#FBFADC"/>
<path d="M390.187 418.592H59.2104C58.3337 418.592 57.4569 417.716 57.4569 416.84C57.4569 415.964 58.3337 415.088 59.2104 415.088H390.187C391.064 415.088 391.94 415.964 391.94 416.84C391.94 417.716 391.064 418.592 390.187 418.592Z" fill="#1A1A1A"/>
<path d="M325.088 425.382C328.156 422.534 334.293 422.096 338.239 422.096C339.116 422.096 339.773 422.534 340.212 422.972C347.006 420.563 353.582 417.716 360.158 414.431C364.322 412.46 366.953 409.613 369.583 405.889C371.994 402.604 374.844 399.319 377.255 395.815C380.104 391.873 381.419 387.273 383.173 382.893C385.146 378.513 387.118 374.132 389.091 369.752C389.529 368.438 390.625 368.219 391.721 368.657C395.009 348.946 391.502 324.416 377.255 295.945C343.719 228.489 309.306 202.864 247.275 187.533L267.221 224.327C282.565 252.58 286.51 265.064 286.51 290.031L263.714 295.945C237.192 387.93 280.592 428.01 323.992 427.353C324.211 426.477 324.649 425.82 325.088 425.382Z" fill="url(#paint5_linear_2012_549)"/>
<path d="M322.019 427.134C353.582 427.572 386.022 406.108 391.721 367.343C341.089 364.934 324.211 418.811 322.019 427.134Z" fill="#FFB850"/>
<g style="mix-blend-mode:overlay">
<path d="M264.372 390.12C285.414 403.699 322.896 419.468 358.404 397.129C402.462 369.314 376.159 301.639 367.391 277.547C370.679 283.242 373.967 289.374 377.036 295.725C438.628 419.468 301.196 466.556 264.372 390.12Z" fill="url(#paint6_linear_2012_549)"/>
</g>
<path d="M354.897 371.942C350.294 338.871 338.677 334.71 325.088 330.11C311.936 325.511 297.251 320.474 285.633 289.593C285.414 289.374 285.633 288.936 286.072 288.717C286.291 288.498 286.729 288.717 286.949 289.155C298.127 319.379 312.813 324.416 325.526 329.015C339.335 333.834 351.39 337.995 355.555 371.285C355.774 371.723 355.336 371.942 354.897 371.942C355.117 371.942 355.117 371.942 354.897 371.942Z" fill="#122C7A"/>
<path d="M102.391 318.284C107.432 326.606 124.529 322.883 127.598 321.569C128.255 321.35 128.694 321.131 128.913 320.912C133.077 319.379 133.954 315.875 133.516 313.466C133.297 311.932 132.42 310.618 131.543 309.961C132.201 309.523 132.639 309.085 133.077 308.428C134.393 306.238 134.612 303.61 133.735 301.42C133.297 300.106 132.42 299.23 131.324 298.792C131.324 298.354 131.543 297.916 131.543 297.697C131.981 294.192 130.886 290.25 127.379 289.374C125.844 288.936 124.31 289.155 122.995 289.593C119.707 290.25 113.57 291.126 110.501 290.907C107.871 290.469 106.994 284.337 106.994 284.337C106.336 283.899 88.8011 295.287 102.391 318.284Z" fill="url(#paint7_linear_2012_549)"/>
<path d="M113.789 302.515C111.816 302.515 109.624 302.296 107.213 302.077C120.145 302.953 130.886 298.573 131.105 298.573C131.543 299.449 123.871 302.515 113.789 302.515Z" fill="#C65347"/>
<path d="M115.761 313.904C113.35 313.904 110.72 313.685 107.87 313.247C122.556 314.561 131.543 309.523 131.543 309.523C131.981 310.618 126.063 313.904 115.761 313.904Z" fill="#C65347"/>
<path d="M217.246 168.26L222.726 190.161C222.726 190.161 227.11 193.446 236.754 187.971C245.96 182.715 245.741 181.62 245.741 181.62L236.535 143.73L217.246 168.26Z" fill="url(#paint8_linear_2012_549)"/>
<path d="M241.138 143.073C240.261 149.425 238.946 153.805 238.946 153.805C237.193 154.024 235.439 152.272 233.686 149.863C236.973 148.549 239.604 145.92 241.138 143.073Z" fill="#1A1A1A"/>
<path d="M241.576 122.486C239.604 106.717 230.836 108.031 224.041 108.688C212.424 98.6136 193.574 111.535 188.313 117.449C183.71 122.486 185.902 131.685 187.436 135.189C187.656 135.627 192.697 141.759 192.697 141.759L191.601 136.503C212.643 131.466 216.589 121.172 216.589 121.172C219.877 132.561 225.356 134.532 226.671 134.97C229.082 131.904 233.905 126.647 239.165 129.932C240.48 130.809 241.357 131.904 242.015 133.218C242.234 129.713 242.015 126.209 241.576 122.486Z" fill="#1A1A1A"/>
<path d="M242.015 133.218C241.357 131.904 240.48 130.809 239.165 129.933C234.124 126.647 229.082 131.904 226.891 134.751C225.137 134.751 219.657 132.561 216.589 121.172C216.589 121.172 209.136 122.267 202.341 125.771C197.738 128.18 191.382 136.065 191.382 136.065C194.45 151.396 198.615 172.859 206.068 175.487C210.89 177.02 221.411 174.392 225.575 171.764C234.343 166.289 232.589 154.462 231.932 150.301C232.589 150.082 233.028 150.082 233.685 149.644C236.754 148.33 239.384 145.92 240.919 142.854C242.891 139.788 243.33 136.284 242.015 133.218Z" fill="#FFAF99"/>
<path d="M224.26 133.875C225.356 134.532 226.233 134.751 226.671 134.97C229.082 131.904 233.905 126.647 239.165 129.932C240.48 130.808 241.357 131.904 242.015 133.218C243.33 136.065 242.891 139.788 241.138 143.073C239.604 145.92 236.973 148.549 233.905 149.863C233.247 150.082 232.809 150.301 232.151 150.52C233.028 154.462 234.562 166.508 225.795 171.983C221.63 174.611 212.862 176.801 208.04 175.268C207.163 175.049 206.287 174.392 205.629 173.516C230.398 170.669 227.767 147.015 224.26 133.875Z" fill="url(#paint9_linear_2012_549)"/>
<path d="M211.986 139.788C211.328 140.007 210.89 139.569 210.671 139.131L210.232 136.503C210.232 136.065 210.451 135.408 211.109 135.408C211.767 135.408 212.205 135.627 212.424 136.065L212.862 138.693C212.643 139.35 212.424 139.788 211.986 139.788Z" fill="#93372B"/>
<path d="M220.315 143.73C220.753 145.264 219 147.016 216.589 147.673C214.178 148.33 211.986 147.454 211.547 145.921C211.109 144.387 212.863 142.635 215.274 141.978C217.685 141.321 219.877 141.978 220.315 143.73Z" fill="#EA7D6A"/>
<path d="M197.519 151.177C197.081 151.615 196.423 151.834 195.546 152.053C194.45 150.301 194.012 148.33 193.574 146.577C195.327 146.139 196.642 146.139 197.519 146.577L196.204 150.958L197.519 151.177Z" fill="#EA7D6A"/>
<path d="M197.3 143.073C196.642 143.073 196.204 142.854 195.985 142.416L195.766 139.569C195.766 139.131 195.985 138.474 196.642 138.474C197.3 138.255 197.738 138.693 197.958 139.131L198.396 141.759C198.177 142.416 197.958 142.854 197.3 143.073Z" fill="#93372B"/>
<path d="M203.876 152.929C195.766 152.929 195.546 151.615 195.327 151.177C195.108 150.082 197.958 140.883 199.273 136.941C199.492 136.722 199.711 136.503 200.149 136.503C200.588 136.503 200.588 136.941 200.588 137.379C198.615 143.511 196.642 150.082 196.642 150.958C197.081 151.396 200.807 151.615 203.876 151.615C204.314 151.615 204.533 151.834 204.533 152.272C204.533 152.71 204.314 152.929 203.876 152.929Z" fill="#C65347"/>
<path d="M238.946 132.561C241.357 134.313 241.138 138.693 238.727 142.197C236.097 145.701 232.151 147.015 229.74 145.263C227.329 143.511 227.548 139.131 229.959 135.627C232.59 132.123 236.535 130.808 238.946 132.561Z" fill="#E0644E"/>
<path d="M216.808 177.239L224.48 184.248L246.618 172.202L256.7 190.161L241.796 203.083C238.288 206.149 233.028 205.711 229.959 202.207L224.26 195.856L217.685 202.426C215.931 204.178 212.862 203.302 212.205 200.893L210.232 192.789L216.808 177.239Z" fill="#FBFADC"/>
<path d="M224.48 196.513C224.041 196.513 223.822 196.294 223.822 195.856V184.248C223.822 183.81 224.041 183.591 224.48 183.591C224.918 183.591 225.137 183.81 225.137 184.248V195.856C224.918 196.075 224.699 196.513 224.48 196.513Z" fill="#122C7A"/>
<path d="M209.355 161.689C206.725 161.689 204.314 157.528 204.095 157.09C203.876 156.871 204.095 156.433 204.314 156.214C204.533 155.995 204.972 156.214 205.191 156.433C205.848 157.747 208.259 161.032 209.794 160.375C211.766 159.718 211.109 155.557 210.671 154.243C210.671 153.805 210.89 153.586 211.109 153.586C211.547 153.586 211.766 153.805 211.766 154.024C211.766 154.243 213.52 160.375 210.232 161.689C210.013 161.689 209.575 161.689 209.355 161.689Z" fill="#C65347"/>
<path d="M224.041 108.688C224.041 108.688 221.192 101.023 212.643 99.7086C204.314 98.3945 194.67 104.965 194.67 104.965C194.67 104.965 211.547 102.556 224.041 108.688Z" fill="#1A1A1A"/>
<path d="M223.822 108.907L237.412 98.1756C237.412 98.1756 236.535 110.878 223.822 108.907Z" fill="#1A1A1A"/>
<path d="M283.003 265.502C281.03 261.778 265.906 256.522 258.892 252.799C253.412 249.733 247.494 248.857 246.179 251.047C244.207 254.551 249.467 259.807 256.481 263.092C253.851 262.873 252.097 265.064 252.317 268.13C252.317 268.568 252.536 269.006 252.974 269.444C250.344 268.787 247.933 271.415 248.152 274.043C248.371 276.452 249.905 278.861 251.659 280.176C252.536 280.833 255.385 282.804 256.262 283.242C256.262 283.242 260.865 292.44 263.276 296.383C263.276 296.383 266.125 298.135 275.112 295.506C284.099 292.878 286.291 289.593 286.291 289.593C286.291 289.593 286.291 271.634 283.003 265.502Z" fill="url(#paint10_linear_2012_549)"/>
<path d="M270.29 267.692C265.687 263.969 256.262 263.312 256.043 263.312C256.481 262.436 265.906 263.093 270.509 266.816C270.509 267.692 270.509 267.692 270.29 267.692Z" fill="#C65347"/>
<path d="M265.468 274.043C261.961 270.539 252.755 269.663 252.536 269.663C252.974 268.787 262.399 269.663 265.687 273.167C265.687 274.043 265.468 274.043 265.468 274.043Z" fill="#C65347"/>
<path d="M256.262 283.68C250.563 277.109 250.563 275.576 250.563 275.138C251.44 275.357 251.659 276.89 256.7 282.804C256.481 283.68 256.481 283.68 256.262 283.68Z" fill="#C65347"/>
<path d="M100.418 224.108H80.4719C80.4719 224.108 85.5133 236.373 102.172 238.125C101.953 238.125 95.8152 229.365 100.418 224.108Z" fill="#1A1A1A"/>
<path d="M112.035 224.327H13.3997C6.16646 224.327 0.467529 218.414 0.467529 211.406V184.029C0.467529 176.801 6.38565 171.107 13.3997 171.107H112.254C119.488 171.107 125.186 177.02 125.186 184.029V211.406C125.186 218.414 119.268 224.327 112.035 224.327Z" fill="#1A1A1A"/>
<path d="M65.7862 202.864C62.2791 204.616 58.3337 203.521 56.7994 200.236C55.2651 197.17 56.361 193.885 59.6489 192.133C62.7175 190.599 66.6629 191.694 68.1973 194.542C69.9508 197.827 68.8548 201.331 65.7862 202.864Z" fill="#FFB850"/>
<path d="M104.363 193.885C106.117 196.513 105.24 200.236 102.61 201.988C99.3221 204.178 94.9383 203.083 93.1848 199.798C91.6505 197.389 92.7464 193.446 95.3767 191.913C98.2262 189.942 102.391 190.818 104.363 193.885Z" fill="#FFB850"/>
<path d="M23.4825 193.009C26.7703 191.257 30.9349 192.352 32.4693 195.418C33.7844 198.046 32.6884 201.769 30.2774 203.302C26.7703 205.273 22.6057 204.178 20.8522 200.893C19.5371 198.046 20.633 194.761 23.4825 193.009Z" fill="#FFB850"/>
<path d="M442.792 334.053C438.847 334.053 430.956 332.739 424.819 323.759C422.846 320.693 421.969 317.189 422.408 313.247C420.216 312.37 418.024 311.056 416.49 308.647C408.818 297.259 412.763 286.527 412.763 286.527C413.859 286.965 410.133 297.258 417.366 307.99C418.682 309.961 420.435 311.275 422.408 312.151C422.627 310.399 423.285 308.647 424.161 306.676C426.572 301.639 430.737 298.135 434.244 297.697C436.217 297.478 438.189 298.573 439.285 300.325C441.697 304.048 440.601 307.99 436.217 311.056C432.929 313.247 427.668 314.561 423.065 313.247C422.846 316.094 423.065 319.598 425.476 322.883C433.806 335.148 444.984 332.52 444.984 332.52C445.423 333.834 444.546 334.053 442.792 334.053ZM423.504 312.37C427.888 313.465 432.71 312.37 435.778 310.18C437.313 309.304 441.697 305.8 438.628 300.982C437.532 299.449 436.217 298.573 434.463 298.792C431.175 299.011 427.449 302.296 425.257 307.114C424.819 308.209 423.942 310.18 423.504 312.37Z" fill="#1A1A1A"/>
<defs>
<linearGradient id="paint0_linear_2012_549" x1="171.55" y1="188.608" x2="171.55" y2="413.205" gradientUnits="userSpaceOnUse">
<stop stop-color="#1F76CC"/>
<stop offset="1" stop-color="#364BB3"/>
</linearGradient>
<linearGradient id="paint1_linear_2012_549" x1="172.517" y1="193.455" x2="169.242" y2="546.903" gradientUnits="userSpaceOnUse">
<stop offset="0.00558659" stop-color="#808080"/>
<stop offset="1"/>
</linearGradient>
<linearGradient id="paint2_linear_2012_549" x1="247.229" y1="188.835" x2="247.229" y2="413.431" gradientUnits="userSpaceOnUse">
<stop stop-color="#1F76CC"/>
<stop offset="1" stop-color="#364BB3"/>
</linearGradient>
<linearGradient id="paint3_linear_2012_549" x1="248.375" y1="128.853" x2="260.897" y2="714.313" gradientUnits="userSpaceOnUse">
<stop offset="0.00558659" stop-color="#808080"/>
<stop offset="1"/>
</linearGradient>
<linearGradient id="paint4_linear_2012_549" x1="237.233" y1="291.301" x2="102.758" y2="291.301" gradientUnits="userSpaceOnUse">
<stop offset="0.00558659" stop-color="#808080"/>
<stop offset="1"/>
</linearGradient>
<linearGradient id="paint5_linear_2012_549" x1="320.022" y1="188.609" x2="320.022" y2="413.205" gradientUnits="userSpaceOnUse">
<stop stop-color="#1F76CC"/>
<stop offset="1" stop-color="#364BB3"/>
</linearGradient>
<linearGradient id="paint6_linear_2012_549" x1="325.759" y1="313.643" x2="333.031" y2="460.782" gradientUnits="userSpaceOnUse">
<stop offset="0.00558659" stop-color="#808080"/>
<stop offset="1"/>
</linearGradient>
<linearGradient id="paint7_linear_2012_549" x1="114.081" y1="283.64" x2="121.73" y2="376.115" gradientUnits="userSpaceOnUse">
<stop offset="0.00558659" stop-color="#FFAF99"/>
<stop offset="1" stop-color="#ED6F5F"/>
</linearGradient>
<linearGradient id="paint8_linear_2012_549" x1="235.245" y1="189.376" x2="224.56" y2="146.708" gradientUnits="userSpaceOnUse">
<stop offset="0.00558659" stop-color="#FFAF99"/>
<stop offset="0.5803" stop-color="#ED6F5F"/>
</linearGradient>
<linearGradient id="paint9_linear_2012_549" x1="210.099" y1="148.524" x2="253.646" y2="160.992" gradientUnits="userSpaceOnUse">
<stop offset="0.00558659" stop-color="#FFAF99"/>
<stop offset="1" stop-color="#ED6F5F"/>
</linearGradient>
<linearGradient id="paint10_linear_2012_549" x1="266.156" y1="273.464" x2="266.156" y2="360.118" gradientUnits="userSpaceOnUse">
<stop offset="0.00558659" stop-color="#FFAF99"/>
<stop offset="1" stop-color="#ED6F5F"/>
</linearGradient>
</defs>
</svg>
