<svg width="40" height="41" viewBox="0 0 40 41" fill="none" xmlns="http://www.w3.org/2000/svg">
<path fill-rule="evenodd" clip-rule="evenodd" d="M1.51241 39.5505L9.07924 37.5656L9.80929 37.9989C12.8789 39.8204 16.3975 40.7843 19.9851 40.7856H19.9932C31.0125 40.7856 39.9812 31.8168 39.9856 20.7929C39.9877 15.4507 37.9101 10.4278 34.1355 6.64872C30.3608 2.86968 25.3411 0.787496 20.001 0.785645C8.97315 0.785645 0.00437746 9.75361 1.69997e-06 20.7767C-0.00154725 24.5544 1.05545 28.2334 3.05675 31.4165L3.53211 32.1729L1.51241 39.5505ZM31.2877 25.9739C31.7068 26.1765 31.9899 26.3133 32.1108 26.5151C32.261 26.7657 32.261 27.9691 31.7604 29.3732C31.2594 30.7771 28.8583 32.0584 27.7034 32.2309C26.668 32.3858 25.3576 32.4503 23.9179 31.9928C23.0449 31.7158 21.9255 31.346 20.4916 30.7267C14.857 28.2938 11.0493 22.8327 10.3296 21.8006C10.2792 21.7283 10.2439 21.6777 10.2243 21.6514L10.2194 21.645C9.90135 21.2206 7.77013 18.377 7.77013 15.434C7.77013 12.6656 9.13005 11.2145 9.75602 10.5465C9.79891 10.5008 9.83835 10.4587 9.87367 10.4201C10.4246 9.81837 11.0758 9.66793 11.4764 9.66793C11.877 9.66793 12.2782 9.67164 12.6283 9.68923C12.6715 9.69139 12.7165 9.69113 12.7629 9.69086C13.1132 9.68881 13.5498 9.68625 13.9806 10.7209C14.1463 11.1191 14.3888 11.7095 14.6446 12.3321C15.1617 13.5912 15.7331 14.9823 15.8337 15.1836C15.984 15.4845 16.0841 15.8353 15.8838 16.2366C15.8537 16.2968 15.8259 16.3536 15.7993 16.4079C15.6488 16.715 15.5382 16.941 15.2828 17.2392C15.1824 17.3565 15.0786 17.4829 14.9748 17.6093C14.768 17.8611 14.5612 18.1129 14.3812 18.2922C14.0803 18.5919 13.7671 18.9171 14.1177 19.5188C14.4683 20.1205 15.6745 22.0886 17.4613 23.6824C19.3819 25.3955 21.0512 26.1196 21.8974 26.4866C22.0626 26.5583 22.1964 26.6164 22.2946 26.6655C22.8954 26.9664 23.246 26.9161 23.5967 26.5151C23.9473 26.114 25.0991 24.76 25.4997 24.1584C25.9003 23.5569 26.3012 23.6571 26.852 23.8576C27.403 24.0584 30.3579 25.5122 30.959 25.813C31.0763 25.8718 31.186 25.9248 31.2877 25.9739Z" fill="white"/>
</svg>
