<svg width="41" height="41" viewBox="0 0 41 41" fill="none" xmlns="http://www.w3.org/2000/svg">
<path fill-rule="evenodd" clip-rule="evenodd" d="M0.985596 20.7856C0.985596 31.8313 9.9399 40.7856 20.9856 40.7856C32.0313 40.7856 40.9856 31.8313 40.9856 20.7856C40.9856 9.73995 32.0313 0.785645 20.9856 0.785645C9.9399 0.785645 0.985596 9.73995 0.985596 20.7856ZM16.7081 29.9247L17.0705 24.4948L17.0702 24.4946L26.9478 15.5808C27.3813 15.1961 26.8531 15.0085 26.2776 15.3575L14.0874 23.0481L8.82185 21.4047C7.68473 21.0565 7.67657 20.2751 9.07715 19.7134L29.5957 11.8015C30.5329 11.376 31.4374 12.0266 31.0796 13.4609L27.5853 29.9274C27.3413 31.0976 26.6343 31.3774 25.6547 30.8369L20.3317 26.9042L17.7732 29.3921C17.7651 29.4 17.7571 29.4078 17.7491 29.4156C17.4629 29.6942 17.2262 29.9247 16.7081 29.9247Z" fill="white"/>
</svg>
