<svg width="41" height="41" viewBox="0 0 41 41" fill="none" xmlns="http://www.w3.org/2000/svg">
<path fill-rule="evenodd" clip-rule="evenodd" d="M20.9856 0.785645C32.0313 0.785645 40.9856 9.73995 40.9856 20.7856C40.9856 31.8313 32.0313 40.7856 20.9856 40.7856C9.9399 40.7856 0.985596 31.8313 0.985596 20.7856C0.985596 9.73995 9.9399 0.785645 20.9856 0.785645ZM26.3141 18.2511C26.2168 17.4608 25.9739 16.8403 25.5425 16.2907C24.9824 15.5829 24.2666 15.1591 23.2069 14.9077C22.5163 14.7402 22.2372 14.7594 21.9874 14.9876C21.7548 15.2013 21.7094 15.6299 21.8872 15.9074C22.0122 16.1088 22.1564 16.1809 22.5576 16.2597C23.0919 16.358 23.4611 16.4855 23.797 16.6776C24.5098 17.0892 24.8418 17.7333 24.8774 18.7761C24.894 19.2657 24.9363 19.4162 25.1073 19.5899C25.4242 19.9073 25.9883 19.8456 26.2276 19.4657C26.3154 19.3226 26.3288 19.2602 26.3381 18.9278C26.3442 18.7219 26.3353 18.4156 26.3141 18.2511ZM26.3234 13.4029C28.0182 14.7734 28.9652 16.7213 29.106 19.1424C29.1652 20.0961 29.0865 20.4066 28.7501 20.5836C28.4465 20.7475 28.1026 20.6935 27.8666 20.4467C27.7103 20.2862 27.6502 20.0667 27.6525 19.678C27.6594 18.6031 27.4118 17.4029 27.0092 16.57C26.5432 15.6007 25.8229 14.7758 24.9168 14.1726C24.1231 13.6429 23.0727 13.2851 22.0543 13.196C21.3937 13.1382 21.1578 13.0264 21.031 12.7097C20.9524 12.5202 20.9732 12.1927 21.0653 12.046C21.1524 11.9108 21.3477 11.7612 21.4859 11.7217C21.6323 11.679 22.4856 11.7536 22.949 11.8457C24.2142 12.1032 25.3685 12.6328 26.3234 13.4029ZM32.1959 28.466C32.1485 28.3276 32.038 28.1142 31.9591 27.9916C31.4617 27.2405 28.7894 25.1493 27.4553 24.4653C26.6935 24.074 26.129 23.9436 25.7106 24.066C25.2606 24.1926 25.0238 24.4021 24.2698 25.339C23.9659 25.7146 23.6541 26.0664 23.5712 26.1217C23.3659 26.2641 22.9633 26.3787 22.6791 26.3787C22.0199 26.3747 20.8239 25.9478 19.9042 25.3864C19.1897 24.9516 18.274 24.1728 17.5714 23.4019C16.7424 22.4967 16.178 21.6981 15.7319 20.7968C15.1557 19.6385 15.0096 18.9308 15.2504 18.413C15.3096 18.2825 15.3886 18.1442 15.424 18.1006C15.4596 18.0612 15.8307 17.7567 16.2411 17.4247C17.0464 16.7843 17.1766 16.638 17.3266 16.1992C17.5161 15.6417 17.4648 15.0725 17.1727 14.4993C16.9477 14.0644 16.3596 13.1157 15.9333 12.5029C15.3688 11.6965 13.9636 9.9729 13.6833 9.73959C13.1781 9.3285 12.5308 9.2573 11.8163 9.53408C11.0624 9.82662 9.64925 10.9651 9.04531 11.7597C8.50059 12.4792 8.29145 12.9892 8.25984 13.6612C8.23223 14.2146 8.27958 14.4439 8.57168 15.1516C10.8571 20.7019 14.2675 25.1334 18.9529 28.6518C21.4002 30.49 23.9383 31.8895 26.5711 32.8462C28.1065 33.4036 28.7736 33.4312 29.5591 32.9727C29.8907 32.775 30.7117 31.933 31.1696 31.3203C31.9275 30.3003 32.2077 29.8299 32.2867 29.4543C32.3419 29.1974 32.2985 28.7507 32.1959 28.466ZM31.1866 15.9529C31.6674 17.2054 31.898 18.3287 31.9485 19.6982C31.9566 19.9688 31.9528 20.4645 31.9353 20.8003C31.8988 21.4439 31.8639 21.5718 31.6786 21.7421C31.3807 22.0216 30.8001 21.955 30.58 21.6182C30.465 21.4375 30.4489 21.3051 30.4711 20.5531C30.535 18.3285 30.0851 16.5868 29.0012 14.8451C27.7061 12.7555 25.7688 11.3479 23.2496 10.6593C22.6072 10.484 22.0658 10.3772 21.2238 10.2638C20.6753 10.192 20.5552 10.1617 20.4198 10.0783C20.0109 9.81642 20.0055 9.15319 20.4131 8.88729C20.6235 8.74692 20.7786 8.74065 21.4643 8.82847C23.475 9.07973 25.2691 9.67719 26.7434 10.58C27.8001 11.228 28.4664 11.8101 29.3242 12.8296C30.2315 13.917 30.7119 14.7209 31.1866 15.9529Z" fill="white"/>
</svg>
